<svg width="200" height="200" viewBox="0 0 200 200" fill="none" xmlns="http://www.w3.org/2000/svg">
<g clip-path="url(#clip0_1_2)">
<circle cx="100" cy="100" r="95" stroke="black" stroke-width="10"/>
<path d="M14.0909 52.9091H38.3636L64 115.455H65.0909L90.7273 52.9091H115V146H95.9091V85.4091H95.1364L71.0455 145.545H58.0455L33.9545 85.1818H33.1818V146H14.0909V52.9091Z" fill="black"/>
<path d="M196.227 87.5H176.318C175.955 84.9242 175.212 82.6364 174.091 80.6364C172.97 78.6061 171.53 76.8788 169.773 75.4545C168.015 74.0303 165.985 72.9394 163.682 72.1818C161.409 71.4242 158.939 71.0455 156.273 71.0455C151.455 71.0455 147.258 72.2424 143.682 74.6364C140.106 77 137.333 80.4545 135.364 85C133.394 89.5151 132.409 95 132.409 101.455C132.409 108.091 133.394 113.667 135.364 118.182C137.364 122.697 140.152 126.106 143.727 128.409C147.303 130.712 151.439 131.864 156.136 131.864C158.773 131.864 161.212 131.515 163.455 130.818C165.727 130.121 167.742 129.106 169.5 127.773C171.258 126.409 172.712 124.758 173.864 122.818C175.045 120.879 175.864 118.667 176.318 116.182L196.227 116.273C195.712 120.545 194.424 124.667 192.364 128.636C190.333 132.576 187.591 136.106 184.136 139.227C180.712 142.318 176.621 144.773 171.864 146.591C167.136 148.379 161.788 149.273 155.818 149.273C147.515 149.273 140.091 147.394 133.545 143.636C127.03 139.879 121.879 134.439 118.091 127.318C114.333 120.197 112.455 111.576 112.455 101.455C112.455 91.303 114.364 82.6667 118.182 75.5455C122 68.4242 127.182 63 133.727 59.2727C140.273 55.5151 147.636 53.6364 155.818 53.6364C161.212 53.6364 166.212 54.3939 170.818 55.9091C175.455 57.4242 179.561 59.6364 183.136 62.5454C186.712 65.4242 189.621 68.9545 191.864 73.1364C194.136 77.3182 195.591 82.1061 196.227 87.5Z" fill="black"/>
</g>
<defs>
<clipPath id="clip0_1_2">
<rect width="200" height="200" fill="white"/>
</clipPath>
</defs>
</svg>
